<?xml version="1.0" encoding="UTF-8"?>
<svg width="246px" height="60px" viewBox="0 0 246 60" version="1.1" xmlns="http://www.w3.org/2000/svg" xmlns:xlink="http://www.w3.org/1999/xlink">
    <!-- Generator: Sketch 49.2 (51160) - http://www.bohemiancoding.com/sketch -->
    <title>talgo-splash</title>
    <desc>Created with Sketch.</desc>
    <defs>
        <linearGradient x1="0%" y1="0%" x2="101.999998%" y2="100.999999%" id="linearGradient-1">
            <stop stop-color="#3023AE" offset="0%"></stop>
            <stop stop-color="#C86DD7" offset="100%"></stop>
        </linearGradient>
    </defs>
    <g id="Page-1" stroke="none" stroke-width="1" fill="none" fill-rule="evenodd">
        <g id="talgo-splash">
            <path d="M144.781111,29.9216667 C144.781111,33.6290926 145.28018,36.9300781 146.278333,39.8247222 C147.276486,42.7193663 148.616843,45.1719344 150.299444,47.1825 C151.982045,49.1930656 153.949804,50.7259207 156.202778,51.7811111 C158.455752,52.8363016 160.837024,53.3638889 163.346667,53.3638889 C164.801118,53.3638889 166.248419,53.1143543 167.688611,52.6152778 C169.128803,52.1162012 170.497679,51.4175045 171.795278,50.5191667 C173.092877,49.6208288 174.297772,48.5585246 175.41,47.3322222 C176.522228,46.1059198 177.491848,44.7655628 178.318889,43.3111111 C179.14593,41.8566594 179.801849,40.3309339 180.286667,38.7338889 C180.771484,37.1368439 181.042407,35.5113046 181.099444,33.8572222 L164.373333,33.8572222 L164.373333,28.8094444 L186.575,28.8094444 L186.575,57 L183.067222,57 L181.356111,47.4177778 C180.443514,48.8151922 179.324173,50.1698083 177.998056,51.4816667 C176.671938,52.7935251 175.217508,53.9627726 173.634722,54.9894444 C172.051937,56.0161162 170.390749,56.843145 168.651111,57.4705556 C166.911473,58.0979661 165.18612,58.4116667 163.475,58.4116667 C159.710537,58.4116667 156.323997,57.6844517 153.315278,56.23 C150.306559,54.7755483 147.739918,52.7650128 145.615278,50.1983333 C143.490638,47.6316538 141.857969,44.6158507 140.717222,41.1508333 C139.576476,37.685816 139.006111,33.9427979 139.006111,29.9216667 C139.006111,27.5831365 139.248516,25.2517709 139.733333,22.9275 C140.218151,20.6032291 140.931106,18.3859365 141.872222,16.2755556 C142.813338,14.1651746 143.968326,12.2116756 145.337222,10.415 C146.706118,8.61832435 148.28175,7.05695108 150.064167,5.73083333 C151.846583,4.40471559 153.8286,3.36380007 156.010278,2.60805556 C158.191955,1.85231104 160.551839,1.47444444 163.09,1.47444444 C166.312609,1.47444444 169.185821,1.90221794 171.709722,2.75777778 C174.233624,3.61333761 176.429528,4.79684429 178.2975,6.30833333 C180.165472,7.81982237 181.733975,9.61647107 183.003056,11.6983333 C184.272136,13.7801956 185.248885,16.0616543 185.933333,18.5427778 L179.858889,18.5427778 C178.432956,14.4931279 176.365384,11.4844543 173.656111,9.51666667 C170.946838,7.54887905 167.424836,6.565 163.09,6.565 C160.409246,6.565 157.949548,7.19240113 155.710833,8.44722222 C153.472118,9.70204331 151.540008,11.3988782 149.914444,13.5377778 C148.288881,15.6766774 147.026949,18.1577637 146.128611,20.9811111 C145.230273,23.8044586 144.781111,26.7846139 144.781111,29.9216667 Z M228,0 C239.1,8.7 246,22.2 246,37.5 C246,49.8 235.8,60 223.5,60 C211.2,60 201,49.8 201,37.5 C201,28.2 204.3,19.5 210,12.6 L210,13.5 C210,19.2 214.5,24 220.2,24 C225.9,24 229.8,19.2 229.8,13.5 C229.8,7.5 228,0 228,0 Z M223.5,51 C231,51 237,45 237,37.8 C237,33.9 236.4,30 235.2,26.4 C232.5,30.3 227.4,32.7 222.3,33.6 C217.5,34.5 214.5,37.8 214.5,42.3 C214.5,47.1 218.4,51 223.5,51 Z" id="GO" fill="url(#linearGradient-1)"></path>
            <path d="M42.2,3.05722222 L42.2,8.27611111 L24.3616667,8.27611111 L24.3616667,57 L18.6294444,57 L18.6294444,8.27611111 L0.748333333,8.27611111 L0.748333333,3.05722222 L42.2,3.05722222 Z M73.2994444,3.05722222 L92.9344444,57 L86.86,57 L80.8711111,40.4877778 L57.6855556,40.4877778 L51.6966667,57 L45.5366667,57 L65.4283333,3.05722222 L73.2994444,3.05722222 Z M69.2783333,8.36166667 L59.6105556,35.3972222 L78.9033333,35.3972222 L69.2783333,8.36166667 Z M103.757222,3.05722222 L103.757222,51.7811111 L130.878333,51.7811111 L130.878333,57 L97.9822222,57 L97.9822222,3.05722222 L103.757222,3.05722222 Z" id="TALG" fill="#FFFFFF"></path>
        </g>
    </g>
</svg>