<?xml version="1.0" encoding="UTF-8"?>
<svg width="86px" height="21px" viewBox="0 0 86 21" version="1.1" xmlns="http://www.w3.org/2000/svg" xmlns:xlink="http://www.w3.org/1999/xlink">
    <!-- Generator: Sketch 49.2 (51160) - http://www.bohemiancoding.com/sketch -->
    <title>talgo-header</title>
    <desc>Created with Sketch.</desc>
    <defs></defs>
    <g id="Page-1" stroke="none" stroke-width="1" fill="none" fill-rule="evenodd">
        <g id="talgo-header" fill="#FFFFFF">
            <path d="M50.9970767,10.4725833 C50.9970767,11.7701824 51.1696618,12.9255273 51.5148373,13.9386528 C51.8600128,14.9517782 52.3235272,15.810177 52.9053944,16.513875 C53.4872616,17.217573 54.1677402,17.7540722 54.9468505,18.1233889 C55.7259609,18.4927056 56.5494386,18.6773611 57.4173084,18.6773611 C57.9202783,18.6773611 58.4207753,18.590024 58.9188142,18.4153472 C59.4168531,18.2406704 59.8902295,17.9961266 60.3389576,17.6817083 C60.7876857,17.3672901 61.2043555,16.9954836 61.5889796,16.5662778 C61.9736037,16.1370719 62.308912,15.667947 62.5949146,15.1588889 C62.8809171,14.6498308 63.1077433,14.1158269 63.2753999,13.5568611 C63.4430566,12.9978954 63.5367457,12.4289566 63.55647,11.8500278 L57.7723442,11.8500278 L57.7723442,10.0833056 L65.4499945,10.0833056 L65.4499945,19.95 L64.2369554,19.95 L63.645229,16.5962222 C63.32964,17.0853173 62.9425561,17.5594329 62.4839659,18.0185833 C62.0253756,18.4777338 61.5224132,18.8869704 60.9750635,19.2463056 C60.4277138,19.6056407 59.8532518,19.8951008 59.2516603,20.1146944 C58.6500687,20.3342881 58.0534172,20.4440833 57.4616878,20.4440833 C56.1598832,20.4440833 54.9887697,20.1895581 53.9483122,19.6805 C52.9078547,19.1714419 52.020274,18.4677545 51.2855433,17.5694167 C50.5508127,16.6710788 49.9862127,15.6155477 49.5917264,14.4027917 C49.1972402,13.1900356 49,11.8799793 49,10.4725833 C49,9.65409776 49.0838271,8.83811981 49.2514837,8.024625 C49.4191404,7.21113019 49.6656906,6.43507777 49.9911418,5.69644444 C50.3165929,4.95781112 50.7160043,4.27408648 51.1893878,3.64525 C51.6627713,3.01641352 52.2076472,2.46993288 52.824032,2.00579167 C53.4404168,1.54165046 54.1258264,1.17733003 54.8802813,0.912819444 C55.6347363,0.648308863 56.4508175,0.516055556 57.3285494,0.516055556 C58.4429731,0.516055556 59.4365704,0.665776281 60.3093713,0.965222222 C61.1821721,1.26466816 61.9415467,1.6788955 62.587518,2.20791667 C63.2334892,2.73693783 63.7758997,3.36576488 64.2147656,4.09441667 C64.6536316,4.82306846 64.9914054,5.62157899 65.2280971,6.48997222 L63.1274683,6.48997222 C62.6343605,5.07259477 61.9193649,4.019559 60.9824601,3.33083333 C60.0455552,2.64210767 58.8275972,2.29775 57.3285494,2.29775 C56.4015067,2.29775 55.5509085,2.5173404 54.7767292,2.95652778 C54.0025499,3.39571516 53.3343989,3.98960737 52.7722559,4.73822222 C52.210113,5.48683708 51.7737192,6.35521728 51.4630612,7.34338889 C51.1524033,8.3315605 50.9970767,9.37461488 50.9970767,10.4725833 Z M79.7753454,0 C83.6138824,3.045 86,7.77 86,13.125 C86,17.43 82.4726957,21 78.2191818,21 C73.9656678,21 70.4383636,17.43 70.4383636,13.125 C70.4383636,9.87 71.5795502,6.825 73.5506908,4.41 L73.5506908,4.725 C73.5506908,6.72 75.1068545,8.4 77.0779951,8.4 C79.0491357,8.4 80.3978109,6.72 80.3978109,4.725 C80.3978109,2.625 79.7753454,0 79.7753454,0 Z M78.2191818,17.85 C80.8127879,17.85 82.8876727,15.75 82.8876727,13.23 C82.8876727,11.865 82.6801842,10.5 82.2652073,9.24 C81.3315091,10.605 79.5678569,11.445 77.8042048,11.76 C76.1442969,12.075 75.1068545,13.23 75.1068545,14.805 C75.1068545,16.485 76.4555297,17.85 78.2191818,17.85 Z" id="GO"></path>
            <path d="M14.65286,1 L14.65286,2.83822363 L8.34714004,2.83822363 L8.34714004,20 L6.32084155,20 L6.32084155,2.83822363 L0,2.83822363 L0,1 L14.65286,1 Z M25.6462853,1 L32.5871137,20 L30.4398422,20 L28.3228139,14.183981 L20.1268902,14.183981 L18.0098619,20 L15.8323471,20 L22.8639053,1 L25.6462853,1 Z M24.2248521,2.86835845 L20.8073636,12.3909596 L27.6272189,12.3909596 L24.2248521,2.86835845 Z M36.4128863,1 L36.4128863,18.1617764 L46,18.1617764 L46,20 L34.3714661,20 L34.3714661,1 L36.4128863,1 Z" id="TALG"></path>
        </g>
    </g>
</svg>